<?xml version="1.0" standalone="no"?>
<!DOCTYPE svg PUBLIC "-//W3C//DTD SVG 20010904//EN"
 "http://www.w3.org/TR/2001/REC-SVG-20010904/DTD/svg10.dtd">
<svg version="1.0" xmlns="http://www.w3.org/2000/svg"
 width="1280.000000pt" height="320.000000pt" viewBox="0 0 1280.000000 320.000000"
 preserveAspectRatio="xMidYMid meet">
<g transform="translate(0.000000,320.000000) scale(0.100000,-0.100000)"
fill="#ffca32" stroke="none">
<path d="M5995 2723 c-27 -1 -185 -10 -350 -18 -714 -36 -882 -48 -1265 -91
-448 -49 -861 -115 -1355 -214 -581 -117 -963 -161 -1544 -180 -385 -12 -633
6 -854 61 -127 32 -217 73 -217 99 0 4 32 20 72 36 97 39 128 66 128 111 0 60
-75 113 -161 113 -79 0 -250 -93 -282 -153 -29 -57 -17 -101 47 -163 84 -82
247 -139 511 -180 101 -16 177 -19 485 -19 622 1 1127 54 1800 190 562 114
1147 199 1645 240 105 8 213 17 242 20 28 3 54 1 57 -4 7 -11 -21 -22 -246
-95 -478 -157 -907 -373 -1153 -582 -138 -118 -221 -248 -232 -368 -5 -57 -3
-72 21 -120 33 -67 70 -99 162 -142 194 -90 555 -99 898 -23 553 123 1078 421
1195 679 27 59 27 135 1 178 -29 47 -101 89 -188 108 -107 24 -346 15 -498
-19 -241 -54 -529 -174 -719 -298 -111 -73 -210 -173 -224 -227 -16 -57 3
-102 55 -128 62 -30 246 -26 387 9 136 34 307 102 410 164 85 50 207 160 207
186 0 8 -12 17 -27 20 -22 5 -34 -1 -56 -24 -15 -16 -37 -29 -49 -29 -12 0
-43 -23 -74 -55 -91 -95 -285 -173 -484 -195 -189 -20 -251 34 -174 152 102
158 551 337 909 364 167 12 318 -28 358 -95 62 -105 -38 -270 -246 -406 -454
-296 -1200 -431 -1537 -279 -116 53 -160 110 -160 211 0 183 220 399 614 604
824 428 2049 583 3191 404 776 -122 1517 -426 1851 -759 124 -124 166 -199
167 -298 1 -106 -37 -153 -151 -188 -279 -86 -758 -17 -1221 176 -408 171
-657 418 -577 573 19 35 52 50 135 57 309 29 940 -189 1111 -384 44 -49 68
-108 52 -124 -28 -28 -223 1 -379 57 -133 47 -218 98 -294 175 -56 57 -71 67
-93 63 -32 -7 -33 -20 -1 -63 56 -76 181 -158 343 -226 114 -48 97 -56 -29
-14 -144 48 -244 105 -322 182 -67 68 -93 81 -103 54 -14 -37 104 -140 236
-206 202 -101 467 -155 600 -121 72 19 166 63 193 92 32 35 34 67 7 127 -73
160 -471 372 -855 454 -92 19 -139 23 -290 23 -209 0 -254 -11 -384 -93 -84
-54 -111 -93 -111 -162 0 -135 150 -298 410 -445 364 -207 789 -325 1166 -325
225 0 372 32 539 116 186 94 231 226 140 410 -73 149 -287 331 -553 470 -59
31 -113 61 -120 67 -19 15 44 66 84 67 35 0 67 30 62 57 -4 24 -51 45 -83 37
-14 -4 -33 -17 -42 -30 -8 -13 -24 -24 -35 -24 -31 0 -58 -19 -58 -40 0 -30
-25 -25 -172 34 -73 30 -214 82 -313 116 -266 90 -269 96 -39 75 499 -47 923
-111 1549 -235 694 -137 1134 -184 1760 -184 383 -1 455 4 665 51 253 56 450
155 495 249 47 100 -34 199 -174 211 -51 5 -63 2 -136 -37 -124 -65 -155 -104
-125 -161 26 -48 135 -68 197 -36 74 39 100 3 38 -51 -44 -39 -152 -74 -315
-101 -194 -33 -396 -41 -718 -31 -581 19 -935 61 -1558 185 -850 169 -1464
244 -2394 290 -173 9 -391 20 -485 25 -154 9 -849 11 -970 3z m6571 -259 c-3
-8 -10 -12 -16 -9 -7 4 -6 14 2 28 12 24 24 8 14 -19z m-4545 -4 c529 -137
1069 -419 1281 -668 83 -97 125 -218 99 -286 -15 -37 -20 -31 -31 40 -17 103
-62 178 -174 289 -212 211 -557 394 -1086 576 -124 43 -220 78 -214 78 7 1 63
-12 125 -29z m-7725 -80 c45 -44 87 -72 146 -99 146 -66 138 -62 98 -55 -124
20 -258 85 -297 143 -22 32 -31 71 -16 71 3 0 35 -27 69 -60z m5188 -259 c41
-26 58 -56 58 -103 -1 -60 -13 -65 -33 -13 -22 59 -49 89 -106 116 -23 11 -43
23 -43 26 0 12 94 -8 124 -26z m2767 -81 c266 -88 486 -234 505 -336 12 -66
-16 -88 -36 -28 -34 101 -247 249 -520 359 -63 26 -117 49 -120 52 -9 9 54 -9
171 -47z m-966 -97 c56 -176 318 -371 732 -549 62 -26 111 -49 110 -50 -2 -2
-34 6 -72 18 -188 56 -439 176 -579 276 -159 115 -253 256 -230 346 8 34 17
25 39 -41z m-3224 -305 c6 -13 23 -35 37 -50 31 -34 26 -42 -17 -27 -35 12
-51 35 -51 73 0 32 15 34 31 4z m-651 -92 c0 -48 34 -120 76 -162 23 -24 82
-63 131 -89 77 -39 83 -44 48 -39 -53 9 -124 36 -180 69 -79 46 -117 130 -101
220 7 38 26 39 26 1z"/>
<path d="M4030 2413 c-8 -3 -26 -16 -40 -28 -14 -12 -37 -25 -52 -29 -15 -3
-32 -15 -38 -25 -24 -45 68 -72 105 -31 11 12 31 20 50 20 50 0 85 52 53 77
-17 14 -60 22 -78 16z"/>
<path d="M3725 2332 c-11 -2 -33 -14 -50 -26 -16 -12 -44 -28 -62 -35 -18 -7
-35 -22 -38 -32 -8 -23 -17 -24 -58 -3 -43 23 -124 22 -166 -2 -18 -10 -54
-30 -79 -44 -59 -31 -82 -72 -61 -108 38 -68 121 -84 214 -44 100 44 120 57
140 94 17 32 23 36 45 30 39 -10 75 -5 117 18 21 11 46 20 56 20 22 0 67 43
67 64 0 41 -72 80 -125 68z"/>
<path d="M9106 2329 c-16 -4 -38 -17 -50 -28 -11 -11 -34 -23 -49 -26 -69 -18
-71 -95 -2 -114 37 -10 70 -4 120 23 17 9 37 16 45 16 56 0 84 85 38 114 -32
20 -68 25 -102 15z"/>
<path d="M9421 2250 c-18 -4 -45 -17 -60 -27 -14 -11 -43 -28 -64 -38 -112
-53 -63 -170 70 -168 29 0 63 7 75 15 13 8 44 22 70 32 53 19 88 56 88 92 0
26 -42 81 -68 88 -41 11 -79 14 -111 6z"/>
<path d="M2700 2059 c-300 -81 -632 -138 -1240 -214 -388 -48 -451 -60 -509
-97 -20 -13 -48 -29 -63 -35 -66 -29 -47 -91 36 -112 129 -32 452 5 776 90
166 43 476 141 695 219 212 75 442 168 451 181 3 5 4 9 2 8 -2 0 -68 -18 -148
-40z"/>
<path d="M10061 2086 c2 -2 63 -27 134 -56 72 -29 146 -61 165 -71 31 -16 32
-18 12 -19 -13 0 -73 11 -134 25 -61 14 -115 24 -121 22 -16 -5 162 -71 427
-158 386 -128 639 -192 880 -224 144 -19 308 -19 356 -1 168 65 187 78 176
119 -12 51 -98 73 -441 112 -555 63 -1065 150 -1365 234 -71 20 -98 25 -89 17z"/>
<path d="M2830 1931 c-331 -127 -635 -286 -840 -440 -144 -108 -270 -251 -270
-306 0 -33 43 -67 93 -72 35 -4 60 2 128 31 99 43 122 61 224 181 175 202 461
434 753 609 105 63 81 62 -88 -3z"/>
<path d="M9926 1972 c5 -5 48 -34 95 -65 81 -53 117 -83 108 -91 -2 -2 -55 16
-117 41 -63 24 -116 42 -119 39 -3 -2 12 -16 33 -31 347 -234 543 -397 736
-610 117 -129 145 -148 208 -142 48 4 164 49 193 75 42 37 12 108 -92 215
-173 181 -464 353 -863 511 -156 62 -205 77 -182 58z"/>
<path d="M9750 1852 c90 -125 115 -172 92 -172 -4 0 -30 16 -57 36 -66 47
-110 70 -99 52 4 -7 27 -42 49 -78 23 -36 77 -134 121 -219 93 -182 133 -231
188 -231 23 0 48 8 63 20 14 11 38 20 54 20 81 0 88 104 14 216 -62 94 -241
253 -395 349 -38 24 -42 25 -30 7z"/>
<path d="M3049 1810 c-195 -118 -397 -301 -445 -403 -30 -66 -33 -142 -5 -157
28 -15 74 -12 97 5 10 8 37 20 59 26 69 19 115 80 219 287 52 103 111 210 131
236 20 26 35 50 32 52 -2 2 -42 -19 -88 -46z"/>
</g>
</svg>
