<?xml version="1.0" encoding="utf-8"?>
<!-- Svg Vector Icons : http://www.onlinewebfonts.com/icon -->
<!DOCTYPE svg PUBLIC "-//W3C//DTD SVG 1.1//EN" "http://www.w3.org/Graphics/SVG/1.1/DTD/svg11.dtd">
<svg fill="#ffca32" version="1.1" xmlns="http://www.w3.org/2000/svg" xmlns:xlink="http://www.w3.org/1999/xlink" x="0px" y="0px" viewBox="0 0 1000 1000" enable-background="new 0 0 1000 1000" xml:space="preserve">
<metadata> Svg Vector Icons : http://www.onlinewebfonts.com/icon </metadata>
<g><path d="M445.3,395.6C445.3,395.6,445.2,395.6,445.3,395.6c-21.5-27.9-60.4-45.9-99.2-45.9c-44.3,0-84.2,23-112.2,64.9c-4.6,6.9-9,13.6-13.3,20.1c-38.9,58.9-68.1,103-126.9,122c1.8,6.4,8.1,19.6,16.9,27.7c16.5,16.7,46.1,37.3,92.2,37.3c97.9,0,130.3-71.3,139.7-101.9c1.3-4.3,5.9-6.8,10.3-5.4c4.3,1.3,6.8,5.9,5.4,10.2c-21.8,71.1-79.9,113.5-155.4,113.5c-54.9,0-88.4-27.1-107.3-45.9c-11.7-12.2-17-27.7-18-31.1c-17.1,3.9-36.5,5.9-59.1,5.9c-2.8,0-5.4,1.4-6.9,3.8c-1.5,2.4-1.7,5.4-0.5,7.9c0.5,1.1,47.6,97.1,175.5,113.5l27.4,60.1c1.4,3,4.4,4.8,7.5,4.8c1.1,0,2.3-0.3,3.4-0.7c4.1-1.9,5.9-6.7,4-10.9l-23.5-51.5c6.2,0.4,12.5,0.7,19,0.7c11.2,0,21.8-1.1,32.1-2.9l27.6,60.6c1.4,3,4.4,4.8,7.5,4.8c1.1,0,2.3-0.2,3.4-0.7c4.1-1.9,5.9-6.7,4.1-10.9l-26.2-57.5c91.5-25.7,143.6-122.3,164.1-207.6l50.1-13.4c2.7-0.7,4.8-2.7,5.7-5.3c0.9-2.6,0.4-5.5-1.3-7.7L445.3,395.6z M372.4,442.7c-8.4,0-15.1-6.8-15.1-15.1c0-8.4,6.8-15.1,15.1-15.1c8.4,0,15.1,6.8,15.1,15.1C387.6,436,380.8,442.7,372.4,442.7z M440.6,462.5c2.6-13.7,4.4-26.9,5.5-39.3l24.5,31.3L440.6,462.5z"/><path d="M988.7,570.9c-1.5-2.4-4.1-3.8-6.9-3.8c-22.6,0-42-2.1-59.1-5.9c-1,3.4-6.3,18.9-18,31.1c-18.9,18.8-52.4,45.9-107.3,45.9c-75.5,0-133.6-42.4-155.4-113.5c-1.3-4.3,1.1-8.9,5.4-10.2c4.3-1.3,8.9,1.1,10.2,5.4c9.4,30.7,41.8,101.9,139.7,101.9c46.1,0,75.7-20.6,92.2-37.3c8.8-8.1,15-21.3,16.9-27.7c-58.8-19.1-88-63.2-126.9-122c-4.3-6.5-8.8-13.2-13.3-20.1c-28-41.9-67.9-64.9-112.2-64.9c-38.7,0-77.6,18-99.1,45.9c0,0,0,0,0,0l-45.9,58.5c-1.7,2.2-2.2,5-1.3,7.7c0.9,2.6,3,4.6,5.7,5.3l50.1,13.4c20.5,85.4,72.6,182,164.2,207.6l-26.2,57.5c-1.9,4.1-0.1,9,4.1,10.9c1.1,0.5,2.3,0.7,3.4,0.7c3.1,0,6.1-1.8,7.5-4.8l27.6-60.5c10.3,1.8,20.9,2.9,32.1,2.9c6.5,0,12.8-0.3,19-0.7l-23.5,51.5c-1.9,4.1-0.1,9,4.1,10.9c1.1,0.5,2.3,0.7,3.4,0.7c3.1,0,6.1-1.8,7.5-4.8l27.4-60.1c127.9-16.4,175-112.5,175.5-113.5C990.4,576.3,990.2,573.3,988.7,570.9z M529.4,454.5l24.5-31.3c1,12.4,2.8,25.6,5.4,39.3L529.4,454.5z M627.6,442.7c-8.4,0-15.1-6.8-15.1-15.1c0-8.4,6.8-15.1,15.1-15.1c8.4,0,15.1,6.8,15.1,15.1C642.7,436,635.9,442.7,627.6,442.7z"/><path d="M567.8,281.7c0-21.4-17.4-38.9-38.9-38.9c-12.4,0-23.5,5.9-30.6,15c-7.1-9.1-18.2-15-30.7-15c-21.4,0-38.9,17.4-38.9,38.9c0,42,62.5,81.5,65.2,83.2c1.3,0.8,2.8,1.2,4.3,1.2s3-0.4,4.3-1.2C505.2,363.2,567.8,323.8,567.8,281.7z"/></g>
</svg>